<svg width="32" height="32" viewBox="0 0 32 32" fill="none" xmlns="http://www.w3.org/2000/svg">
<path d="M7.14287 5.92857H24.8572C25.0143 5.92857 25.1429 5.8 25.1429 5.64286V3.64286C25.1429 3.48571 25.0143 3.35714 24.8572 3.35714H7.14287C6.98572 3.35714 6.85715 3.48571 6.85715 3.64286V5.64286C6.85715 5.8 6.98572 5.92857 7.14287 5.92857ZM24.8572 21.0714C25.0143 21.0714 25.1429 20.9429 25.1429 20.7857V18.7857C25.1429 18.6286 25.0143 18.5 24.8572 18.5H7.14287C6.98572 18.5 6.85715 18.6286 6.85715 18.7857V20.7857C6.85715 20.9429 6.98572 21.0714 7.14287 21.0714H24.8572ZM30 26.0714H2.00001C1.84287 26.0714 1.71429 26.2 1.71429 26.3571V28.3571C1.71429 28.5143 1.84287 28.6429 2.00001 28.6429H30C30.1572 28.6429 30.2857 28.5143 30.2857 28.3571V26.3571C30.2857 26.2 30.1572 26.0714 30 26.0714ZM30 10.9286H2.00001C1.84287 10.9286 1.71429 11.0571 1.71429 11.2143V13.2143C1.71429 13.3714 1.84287 13.5 2.00001 13.5H30C30.1572 13.5 30.2857 13.3714 30.2857 13.2143V11.2143C30.2857 11.0571 30.1572 10.9286 30 10.9286Z" fill="#9B9B9B"/>
</svg>
