<svg width="32" height="32" viewBox="0 0 32 32" fill="none" xmlns="http://www.w3.org/2000/svg">
<path d="M30 3.35714H12.2857C12.1286 3.35714 12 3.48571 12 3.64285V5.64285C12 5.8 12.1286 5.92857 12.2857 5.92857H30C30.1572 5.92857 30.2857 5.8 30.2857 5.64285V3.64285C30.2857 3.48571 30.1572 3.35714 30 3.35714ZM30 18.5H12.2857C12.1286 18.5 12 18.6286 12 18.7857V20.7857C12 20.9429 12.1286 21.0714 12.2857 21.0714H30C30.1572 21.0714 30.2857 20.9429 30.2857 20.7857V18.7857C30.2857 18.6286 30.1572 18.5 30 18.5ZM30 26.0714H2.00001C1.84287 26.0714 1.71429 26.2 1.71429 26.3571V28.3571C1.71429 28.5143 1.84287 28.6429 2.00001 28.6429H30C30.1572 28.6429 30.2857 28.5143 30.2857 28.3571V26.3571C30.2857 26.2 30.1572 26.0714 30 26.0714ZM30 10.9286H2.00001C1.84287 10.9286 1.71429 11.0571 1.71429 11.2143V13.2143C1.71429 13.3714 1.84287 13.5 2.00001 13.5H30C30.1572 13.5 30.2857 13.3714 30.2857 13.2143V11.2143C30.2857 11.0571 30.1572 10.9286 30 10.9286Z" fill="#9B9B9B"/>
</svg>
