<svg width="24" height="26" viewBox="0 0 24 26" fill="none" xmlns="http://www.w3.org/2000/svg">
<path d="M12.7571 12.2964L3.63928 0.646431C3.53214 0.507145 3.36428 0.428574 3.18928 0.428574H0.428565C0.189279 0.428574 0.0571363 0.703573 0.203565 0.889288L9.68214 13L0.203565 25.1107C0.170589 25.1528 0.150128 25.2034 0.144522 25.2566C0.138915 25.3097 0.148389 25.3634 0.17186 25.4115C0.195331 25.4596 0.231852 25.5 0.277247 25.5283C0.322643 25.5566 0.37508 25.5715 0.428565 25.5714H3.18928C3.36428 25.5714 3.53214 25.4893 3.63928 25.3536L12.7571 13.7071C13.0821 13.2893 13.0821 12.7107 12.7571 12.2964V12.2964ZM23.6143 12.2964L14.4964 0.646431C14.3893 0.507145 14.2214 0.428574 14.0464 0.428574H11.2857C11.0464 0.428574 10.9143 0.703573 11.0607 0.889288L20.5393 13L11.0607 25.1107C11.0277 25.1528 11.0073 25.2034 11.0017 25.2566C10.9961 25.3097 11.0055 25.3634 11.029 25.4115C11.0525 25.4596 11.089 25.5 11.1344 25.5283C11.1798 25.5566 11.2322 25.5715 11.2857 25.5714H14.0464C14.2214 25.5714 14.3893 25.4893 14.4964 25.3536L23.6143 13.7071C23.9393 13.2893 23.9393 12.7107 23.6143 12.2964V12.2964Z" fill="#9B9B9B"/>
</svg>
