<svg width="32" height="32" viewBox="0 0 32 32" fill="none" xmlns="http://www.w3.org/2000/svg">
<path d="M30 3.42857H2.00001C1.84287 3.42857 1.71429 3.55715 1.71429 3.71429V6C1.71429 6.15715 1.84287 6.28572 2.00001 6.28572H30C30.1572 6.28572 30.2857 6.15715 30.2857 6V3.71429C30.2857 3.55715 30.1572 3.42857 30 3.42857ZM30 25.7143H2.00001C1.84287 25.7143 1.71429 25.8429 1.71429 26V28.2857C1.71429 28.4429 1.84287 28.5714 2.00001 28.5714H30C30.1572 28.5714 30.2857 28.4429 30.2857 28.2857V26C30.2857 25.8429 30.1572 25.7143 30 25.7143ZM30 14.5714H2.00001C1.84287 14.5714 1.71429 14.7 1.71429 14.8571V17.1429C1.71429 17.3 1.84287 17.4286 2.00001 17.4286H30C30.1572 17.4286 30.2857 17.3 30.2857 17.1429V14.8571C30.2857 14.7 30.1572 14.5714 30 14.5714Z" fill="#9B9B9B"/>
</svg>
