<svg width="32" height="32" viewBox="0 0 32 32" fill="none" xmlns="http://www.w3.org/2000/svg">
<path d="M30.5715 12.5714H19.7143C19.5572 12.5714 19.4286 12.7 19.4286 12.8571V16.8571C19.4286 17.0143 19.5572 17.1429 19.7143 17.1429H21.4286C21.5857 17.1429 21.7143 17.0143 21.7143 16.8571V14.8571H23.8572V26.2857H22.2143C22.0572 26.2857 21.9286 26.4143 21.9286 26.5714V28.2857C21.9286 28.4429 22.0572 28.5714 22.2143 28.5714H28.0715C28.2286 28.5714 28.3572 28.4429 28.3572 28.2857V26.5714C28.3572 26.4143 28.2286 26.2857 28.0715 26.2857H26.4286V14.8571H28.5715V16.8571C28.5715 17.0143 28.7 17.1429 28.8572 17.1429H30.5715C30.7286 17.1429 30.8572 17.0143 30.8572 16.8571V12.8571C30.8572 12.7 30.7286 12.5714 30.5715 12.5714ZM21.1429 8.28572V3.71429C21.1429 3.55715 21.0143 3.42857 20.8572 3.42857H1.4286C1.27145 3.42857 1.14288 3.55715 1.14288 3.71429V8.28572C1.14288 8.44286 1.27145 8.57143 1.4286 8.57143H3.4286C3.58574 8.57143 3.71431 8.44286 3.71431 8.28572V6H9.71431V26H6.4286C6.27145 26 6.14288 26.1286 6.14288 26.2857V28.2857C6.14288 28.4429 6.27145 28.5714 6.4286 28.5714H15.8572C16.0143 28.5714 16.1429 28.4429 16.1429 28.2857V26.2857C16.1429 26.1286 16.0143 26 15.8572 26H12.5715V6H18.5715V8.28572C18.5715 8.44286 18.7 8.57143 18.8572 8.57143H20.8572C21.0143 8.57143 21.1429 8.44286 21.1429 8.28572Z" fill="#9B9B9B"/>
</svg>
